<!-- <?xml version="1.0" encoding="UTF-8"?> 
<svg xmlns="http://www.w3.org/2000/svg" viewBox="0 0 20 20">
	<g fill="none" fill-rule="evenodd" stroke="currentColor" stroke-width="1.5">
		<path d="M13.571 9.536l-3.535 3.535L6.5 9.536M10.015 12.005v-6.83" />
		<circle cx="10" cy="10" r="8" />
	</g>
</svg> -->

<?xml version="1.0" encoding="UTF-8"?>
<svg xmlns="http://www.w3.org/2000/svg" viewBox="0 0 512 512">
  <path d="M288 32c0-17.7-14.3-32-32-32s-32 14.3-32 32l0 242.7-73.4-73.4c-12.5-12.5-32.8-12.5-45.3 0s-12.5 32.8 0 45.3l128 128c12.5 12.5 32.8 12.5 45.3 0l128-128c12.5-12.5 12.5-32.8 0-45.3s-32.8-12.5-45.3 0L288 274.7 288 32zM64 352c-35.3 0-64 28.7-64 64l0 32c0 35.3 28.7 64 64 64l384 0c35.3 0 64-28.7 64-64l0-32c0-35.3-28.7-64-64-64l-101.5 0-45.3 45.3c-25 25-65.5 25-90.5 0L165.5 352 64 352zm368 56a24 24 0 1 1 0 48 24 24 0 1 1 0-48z"/>
</svg>	